<svg xmlns="http://www.w3.org/2000/svg" xmlns:xlink="http://www.w3.org/1999/xlink" width="770.855" height="537.519" viewBox="0 0 770.855 537.519">
  <defs>
    <linearGradient id="linear-gradient" y1="0.5" x2="1" y2="0.5" gradientUnits="objectBoundingBox">
      <stop offset="0" stop-color="#ffd100"/>
      <stop offset="1" stop-color="#eac003"/>
    </linearGradient>
    <linearGradient id="linear-gradient-3" y1="0.5" x2="2.455" y2="0.5" gradientUnits="objectBoundingBox">
      <stop offset="0" stop-color="#fcdf5e"/>
      <stop offset="0.172" stop-color="#ebebeb"/>
      <stop offset="0.685" stop-color="#ffd100"/>
      <stop offset="1" stop-color="#ffd100"/>
    </linearGradient>
    <linearGradient id="linear-gradient-4" x1="0.501" y1="-0.098" x2="0.499" y2="1.006" gradientUnits="objectBoundingBox">
      <stop offset="0.229" stop-color="#fafbfe"/>
      <stop offset="0.802" stop-color="#fafbfe" stop-opacity="0"/>
    </linearGradient>
    <linearGradient id="linear-gradient-5" x1="0.916" y1="0.674" x2="0.092" y2="0.184" gradientUnits="objectBoundingBox">
      <stop offset="0.382" stop-color="#ef7c89"/>
      <stop offset="0.72" stop-color="#faa498"/>
    </linearGradient>
    <linearGradient id="linear-gradient-6" x1="1" y1="0.5" x2="0" y2="0.5" gradientUnits="objectBoundingBox">
      <stop offset="0" stop-color="#ef7c89"/>
      <stop offset="1" stop-color="#faa498"/>
    </linearGradient>
    <linearGradient id="linear-gradient-7" x1="1.385" y1="0.516" x2="0.825" y2="0.506" gradientUnits="objectBoundingBox">
      <stop offset="0" stop-color="#ef7c89"/>
      <stop offset="0.944" stop-color="#faa297"/>
      <stop offset="1" stop-color="#faa498"/>
    </linearGradient>
    <linearGradient id="linear-gradient-8" x1="0.907" y1="0.726" x2="-0.902" y2="0.006" gradientUnits="objectBoundingBox">
      <stop offset="0" stop-color="#ff9c99"/>
      <stop offset="1" stop-color="#f66385"/>
    </linearGradient>
    <linearGradient id="linear-gradient-9" x1="1.131" y1="0.511" x2="0.513" y2="0.501" xlink:href="#linear-gradient-7"/>
    <linearGradient id="linear-gradient-10" x1="1.477" y1="0.507" x2="-1.781" y2="0.478" xlink:href="#linear-gradient-7"/>
    <linearGradient id="linear-gradient-11" x1="-0.383" y1="0.411" x2="1.13" y2="0.55" gradientUnits="objectBoundingBox">
      <stop offset="0.383" stop-color="#fff" stop-opacity="0"/>
      <stop offset="0.959" stop-color="#fff"/>
    </linearGradient>
    <linearGradient id="linear-gradient-12" x1="-0.428" y1="0.416" x2="1.128" y2="0.572" xlink:href="#linear-gradient-11"/>
    <linearGradient id="linear-gradient-13" x1="1.089" y1="0.5" x2="0.089" y2="0.5" gradientUnits="objectBoundingBox">
      <stop offset="0" stop-color="#ef7c89"/>
      <stop offset="0.451" stop-color="#faa498"/>
    </linearGradient>
    <linearGradient id="linear-gradient-14" x1="-5.617" y1="0.414" x2="-2.383" y2="0.448" xlink:href="#linear-gradient-7"/>
    <linearGradient id="linear-gradient-15" y1="0.5" x2="1" y2="0.5" gradientUnits="objectBoundingBox">
      <stop offset="0" stop-color="#8f97f9"/>
      <stop offset="0.21" stop-color="#8f97f9" stop-opacity="0.988"/>
      <stop offset="0.343" stop-color="#8f97f9" stop-opacity="0.953"/>
      <stop offset="0.455" stop-color="#8f97f9" stop-opacity="0.894"/>
      <stop offset="0.555" stop-color="#8f97f9" stop-opacity="0.812"/>
      <stop offset="0.647" stop-color="#8f97f9" stop-opacity="0.706"/>
      <stop offset="0.733" stop-color="#8f97f9" stop-opacity="0.573"/>
      <stop offset="0.813" stop-color="#8f97f9" stop-opacity="0.416"/>
      <stop offset="0.865" stop-color="#8f97f9" stop-opacity="0.302"/>
    </linearGradient>
    <linearGradient id="linear-gradient-16" x1="1.099" y1="0.62" x2="-0.588" y2="0.346" gradientUnits="objectBoundingBox">
      <stop offset="0.283" stop-color="#ffb69f"/>
      <stop offset="0.773" stop-color="#ef7c89"/>
    </linearGradient>
    <linearGradient id="linear-gradient-17" x1="1.108" y1="0.5" x2="-0.084" y2="0.5" gradientUnits="objectBoundingBox">
      <stop offset="0" stop-color="#ef7c89"/>
      <stop offset="1" stop-color="#ffb69f"/>
    </linearGradient>
    <linearGradient id="linear-gradient-18" x1="1.305" y1="-0.323" x2="-0.013" y2="0.783" gradientUnits="objectBoundingBox">
      <stop offset="0.667" stop-color="#ffb69f"/>
      <stop offset="1" stop-color="#ef7c89"/>
    </linearGradient>
    <linearGradient id="linear-gradient-19" x1="-2.317" y1="1.788" x2="4.181" y2="-1.04" xlink:href="#linear-gradient-18"/>
    <linearGradient id="linear-gradient-20" x1="1.167" y1="0.721" x2="0.218" y2="0.318" xlink:href="#linear-gradient"/>
    <linearGradient id="linear-gradient-21" x1="0.911" y1="-0.132" x2="0.122" y2="0.789" gradientUnits="objectBoundingBox">
      <stop offset="0" stop-color="#ffd100"/>
      <stop offset="0.088" stop-color="#fcdf5e"/>
      <stop offset="0.766" stop-color="#fafbfe" stop-opacity="0.102"/>
      <stop offset="1" stop-color="#fafbfe" stop-opacity="0.102"/>
    </linearGradient>
    <linearGradient id="linear-gradient-22" x1="1.172" y1="0.5" x2="0.172" y2="0.5" xlink:href="#linear-gradient-21"/>
    <linearGradient id="linear-gradient-23" x1="0.5" y1="0.675" x2="0.085" y2="0.897" gradientUnits="objectBoundingBox">
      <stop offset="0" stop-color="#fff" stop-opacity="0"/>
      <stop offset="0.832" stop-color="#fff" stop-opacity="0.812"/>
      <stop offset="1" stop-color="#fff"/>
    </linearGradient>
    <linearGradient id="linear-gradient-24" x1="124.978" y1="4.47" x2="126.747" y2="4.629" gradientUnits="objectBoundingBox">
      <stop offset="0" stop-color="#fff" stop-opacity="0"/>
      <stop offset="0.959" stop-color="#fff"/>
      <stop offset="1" stop-color="#fff"/>
    </linearGradient>
  </defs>
  <g id="Group_39379" data-name="Group 39379" transform="translate(-526.045 -145.867)">
    <g id="Group_38135" data-name="Group 38135" transform="translate(-21 13)">
      <path id="Path_6802" data-name="Path 6802" d="M1198.122,532.716c35.364-72.2-33.7-59.137-60.664-100.177-30.991-47.162,62.338-73.312,48.69-123.854-17.262-63.925-109.934-47.567-158.919-38.706-16.853,3.05-81.3,28.288-93.315,22.759-26.728-12.3-6.572-25.222-21.621-44.482C855.928,176.121,636.771,306.172,591.626,351.1c-24.55,24.43-55.311,58.766-68.3,89.779-17.123,40.88-4.41,54.139,17.447,63.868,33.654,14.982,41.77,53.9,16.956,78.814-49.864,50.072-98.437,114.786-.065,132.319,90.176,16.075,208.708-1.247,301.844,1.289,86.128,2.346,208.825,37.722,285.1-15.032,60.754-42.021-2.376-31.91-15.669-68.007C1116.337,599.92,1183.928,561.694,1198.122,532.716Z" transform="translate(66.826 -94.032)" fill="#ffd100"/>
      <path id="Path_6803" data-name="Path 6803" d="M1210.924,332.558l-162.971,54.69A283.2,283.2,0,0,1,980.5,401.058l-10.908.878-31.2-13.28,11.951-5.643-15.27-15.766,13.612-5.478,46.138,18.922,49.462-15.6-85.645-58.425,12.915-6.176a6.349,6.349,0,0,1,4.826-.267l90.146,31.34,6.2-2.585a8.491,8.491,0,0,1,9.755,2.364l1.3,1.551-.332,1.99,22.575,9.96,64.4-18.922s8.963-4.65,18.918-4.317,20.917,6.307,21.577,7.637A5.181,5.181,0,0,1,1210.924,332.558Z" transform="translate(106.682 -132.865)" fill="#f8f8f8"/>
      <path id="Path_6805" data-name="Path 6805" d="M1121.454,594c-7.872-21.373,15.56-44.313,37.713-65.588h-4.5v-16.9l-22.25-17.124-22.25,17.124v16.9h-12.505V453.158h-44.5v41.233H1019.1V403.362h-8.074V380.831h-2.14v22.531H974.6v67.9h-9.576V431.3h-44.5V468.93H888.514V427.19h-24.86V346.357L841.4,329.233l-22.25,17.124v44.97h-32.22v16.091H753.342V427.19H742.414V388.943h-44.5v83.2H685.183V431.3H677.11V408.771h-2.141V431.3H640.683v63.089H623.371v-8.336l-22.25-17.124-22.25,17.124v8.336H562c5.794,16.232,2.333,34.893-11.756,49.041a416.308,416.308,0,0,0-30.483,33.653v49.381h638.188C1148.413,618.941,1128.309,612.614,1121.454,594Z" transform="translate(74.308 -53.907)" fill="#fcdf5e"/>
      <path id="Path_6806" data-name="Path 6806" d="M795.766,612.075c17.614-4.623,20.187-9.072,19.928-20.277a113.077,113.077,0,0,0-16.705-3.114c-10.981-1.268-13.838,3.349-16.118-9.629-1.238-7.044,18.461-18.373,17.571-26.284-.923-8.2-22.578-15.406-22.342-22.26.309-8.972,8.179-8.407,14.529-7.541a84.875,84.875,0,0,1-5.154-9.916c-15.632-35.426-16.336-34.821-51.252-48.2-26.528-10.165-57.689,10.3-72.938,9.072-13.934-1.126-42.487-18.463-62.15-5.685C582,480.675,569.307,508.009,557.049,513c-3.824,1.558-10.431.56-18.6-.937-22.381,25.448-41.366,52.981-41,75.476,56.209,17.983,64.194,31.513,136.984,38.616C717.4,634.251,717.163,632.708,795.766,612.075Z" transform="translate(65.558 -1.844)" fill="url(#linear-gradient)"/>
      <path id="Path_6807" data-name="Path 6807" d="M860.112,566.29c17.149-8.365,18.87-13.279,16.279-24.184a124.33,124.33,0,0,0-17.823.6c-11.553,1.157-13.531,6.3-18.571-5.9-2.734-6.621,15.167-22,12.61-29.545-2.652-7.824-26.412-10.146-27.593-16.9-1.544-8.843,6.664-10.008,13.374-10.545a83.4,83.4,0,0,1-7.357-8.577c-23.426-31.243-24.026-30.5-62.7-35.965-29.385-4.157-57.174,22.666-73.106,24.788-14.56,1.941-47.517-8.79-65.081,8C613.051,484.4,605.675,513.9,594.11,521.465c-3.61,2.36-10.609,2.825-19.318,3.142-17.726,29.777-31.531,60.852-26.482,82.777,61.525,5.326,72.544,16.818,148.857,7.882C784.141,605.083,783.58,603.624,860.112,566.29Z" transform="translate(85.088 -12.501)" fill="#ffd100"/>
      <path id="Path_6814" data-name="Path 6814" d="M1008.678,520.557c-8.2-4.69-6.1-29.41-16.825-36.154-8.375-5.266-29.661,7.5-39.813.782-14.009-9.273-29.989-28.892-53.3-24.061-17.323,3.59-31.109,31.109-51.245,37.108-18.444,5.495-43.008-10.559-62.219-6.732-19.75,3.934-38.269,28.076-57.2,26.469-1.314-.111-2.872-.344-4.527-.558,11.548,18.064,23.208,19.925,23.208,45.722,0,10.037.9,17.433,1.034,23.1,26.178,6.742,31.306,19.093,67.592,19.093,43.183,0,43.183-22.274,86.367-22.274s43.186,22.274,86.373,22.274,41.919-14.748,84.473-22.111c4.389-.759,8.187.65,10.574.354.156-5.421-5.3-9.109-12.43-13.3-2.509-.987-4.686-2.08-5.929-3.476-9.017-5.387-18.87-12.271-23.268-24.214-3.267-8.869-1.135-18.01,4.052-27.188C1036.747,515.049,1019.6,526.8,1008.678,520.557Z" transform="translate(154.214 -2.488)" fill="url(#linear-gradient)"/>
      <path id="Path_6815" data-name="Path 6815" d="M985.634,539.142c-8.2-4.69-6.1-29.41-16.825-36.154-8.375-5.266-29.661,7.5-39.813.782-14.01-9.273-29.989-28.892-53.3-24.061-17.323,3.59-31.109,31.109-51.245,37.108-18.444,5.493-43.008-10.559-62.219-6.732-19.751,3.934-38.269,28.076-57.2,26.469-1.313-.111-2.87-.344-4.526-.56,11.547,18.065,23.208,19.926,23.208,45.722,0,10.038.9,17.435,1.034,23.106,26.177,6.742,31.306,19.093,67.591,19.093,43.184,0,43.184-22.274,86.369-22.274s43.186,22.274,86.373,22.274S1007,609.168,1049.556,601.8c4.388-.759,8.187.65,10.573.354.156-5.421-5.3-9.109-12.429-13.3-2.509-.987-4.687-2.08-5.929-3.476-9.018-5.388-18.87-12.271-23.269-24.214-3.266-8.869-1.133-18.01,4.054-27.188C1013.7,533.634,996.552,545.387,985.634,539.142Z" transform="translate(145.179 4.8)" fill="#ffd100"/>
      <path id="Path_6827" data-name="Path 6827" d="M1123.133,558.007c-5.691-2.353-112.13-18.512-168.525-25.9-65.867-8.634-175.612-14.483-265.84-6.62-66.877,5.829-92.143-1.112-155.192,19.09-33.214,10.643-41.007,26.681-36.178,34.649,11.174,18.441,45.6,24.282,98.3,29.135C624.4,611,600.843,667.027,821.56,642.673c30.14-3.326,58.273-3.785,88.351-7.517,15.182-1.884,30.568.283,45.8,1.7,47.145,4.4,75.9,1.593,122-8.245,19.95-4.257,84.8-14.167,94.5-30.094C1182.419,581.745,1141.609,565.644,1123.133,558.007Z" transform="translate(65.027 21.593)" fill="url(#linear-gradient-3)"/>
      <ellipse id="Ellipse_228" data-name="Ellipse 228" cx="146.138" cy="7.952" rx="146.138" ry="7.952" transform="translate(632.398 606.089)" fill="#fcdf5e" opacity="0.3"/>
      <ellipse id="Ellipse_229" data-name="Ellipse 229" cx="105.289" cy="7.952" rx="105.289" ry="7.952" transform="translate(905.465 604.643)" fill="#fcdf5e" opacity="0.3"/>
      <line id="Line_23" data-name="Line 23" x2="9.105" y2="9.807" transform="translate(853.155 391.314)" fill="none" stroke="#fff" stroke-linecap="round" stroke-miterlimit="10" stroke-width="4.384"/>
      <g id="Group_4291" data-name="Group 4291" transform="translate(936.904 288.886)">
        <rect id="Rectangle_1038" data-name="Rectangle 1038" width="40.693" height="35.351" rx="6.823" transform="translate(0 0)" fill="#8f97f9"/>
        <path id="Path_6828" data-name="Path 6828" d="M786.978,350.1a.944.944,0,0,1-1.139-.17,4.483,4.483,0,0,0-3.113-1.325c-1.73-.01-3.32.571-3.33,2.293-.01,1.623,1.636,1.93,3.386,2.187,3.042.461,6.29,1.121,6.263,5.45a5.168,5.168,0,0,1-4.222,5.271.933.933,0,0,0-.759.9l0,.75a.918.918,0,0,1-.926.913l-.809,0a.919.919,0,0,1-.913-.924l0-.632a.93.93,0,0,0-.75-.908,6.125,6.125,0,0,1-4.338-3.269.92.92,0,0,1,.419-1.235l.874-.432a.938.938,0,0,1,1.186.337,4.712,4.712,0,0,0,3.759,1.874c1.875.013,3.61-.741,3.621-2.659.011-1.623-1.715-2.226-3.654-2.507-2.978-.413-5.893-1.045-5.866-5.129a4.88,4.88,0,0,1,4.143-4.878.925.925,0,0,0,.728-.891l0-.464a.917.917,0,0,1,.924-.913l.809,0a.921.921,0,0,1,.915.926l0,.483a.909.909,0,0,0,.66.888,5.054,5.054,0,0,1,3.237,2.4.92.92,0,0,1-.365,1.267Z" transform="translate(-762.034 -337.105)" fill="#fff"/>
      </g>
      <g id="Group_4316" data-name="Group 4316" transform="translate(795.318 180.014)">
        <g id="Group_4315" data-name="Group 4315" transform="translate(0 0)">
          <rect id="Rectangle_1039" data-name="Rectangle 1039" width="232.299" height="438.888" rx="17.335"/>
          <g id="Group_4292" data-name="Group 4292" transform="translate(82.677 13.859)">
            <rect id="Rectangle_1040" data-name="Rectangle 1040" width="59.001" height="6.99" rx="2.511" fill="#fff4c6"/>
          </g>
          <g id="Group_4293" data-name="Group 4293" transform="translate(146.062 12.438)">
            <rect id="Rectangle_1041" data-name="Rectangle 1041" width="9.833" height="9.833" rx="3.531" fill="#fff4c6"/>
          </g>
          <g id="Group_4294" data-name="Group 4294" transform="translate(11.079 12.918)">
            <path id="Path_6829" data-name="Path 6829" d="M870.96,270.046H844.63a5.013,5.013,0,0,0-4.984,4.476l-.69,6.436a10.3,10.3,0,0,1-10.246,9.2H728.366a10.3,10.3,0,0,1-10.245-9.2l-.692-6.436a5.011,5.011,0,0,0-4.982-4.476H683.812a11.526,11.526,0,0,0-11.527,11.527v388.5a14.7,14.7,0,0,0,14.7,14.7h180.8a14.7,14.7,0,0,0,14.7-14.7v-388.5A11.527,11.527,0,0,0,870.96,270.046Z" transform="translate(-672.285 -270.046)" fill="#fff4c6"/>
          </g>
          <g id="Group_4301" data-name="Group 4301" transform="translate(24.441 297.127)">
            <rect id="Rectangle_1042" data-name="Rectangle 1042" width="183.441" height="67.376" rx="5.147" fill="#fff"/>
            <g id="Group_4300" data-name="Group 4300" transform="translate(11.124 13.094)">
              <g id="Group_4299" data-name="Group 4299">
                <g id="Group_4295" data-name="Group 4295">
                  <rect id="Rectangle_1043" data-name="Rectangle 1043" width="41.188" height="41.188" rx="8.789" transform="translate(121)" fill="#3e3e3e"/>
                </g>
                <g id="Group_4297" data-name="Group 4297" transform="translate(55.139 3.621)">
                  <rect id="Rectangle_1044" data-name="Rectangle 1044" width="105.517" height="5.169" rx="1.857" transform="translate(-49)" fill="#fae58b"/>
                </g>
                <g id="Group_4298" data-name="Group 4298" transform="translate(55.139 17.283)">
                  <rect id="Rectangle_1045" data-name="Rectangle 1045" width="105.517" height="5.169" rx="1.857" transform="translate(-49)" fill="#fae58b"/>
                </g>
                <rect id="Rectangle_1046" data-name="Rectangle 1046" width="32.326" height="5.169" rx="1.857" transform="translate(6.139 30.945)" fill="#fae58b"/>
              </g>
            </g>
          </g>
          <g id="Group_4307" data-name="Group 4307" transform="translate(24.441 222.743)">
            <rect id="Rectangle_1047" data-name="Rectangle 1047" width="183.441" height="67.376" rx="5.147" fill="#fff"/>
            <g id="Group_4306" data-name="Group 4306" transform="translate(11.124 13.094)">
              <g id="Group_4305" data-name="Group 4305">
                <g id="Group_4302" data-name="Group 4302">
                  <rect id="Rectangle_1048" data-name="Rectangle 1048" width="41.188" height="41.188" rx="8.789" transform="translate(121)" fill="#3e3e3e"/>
                </g>
                <g id="Group_4303" data-name="Group 4303" transform="translate(55.139 3.621)">
                  <rect id="Rectangle_1049" data-name="Rectangle 1049" width="105.517" height="5.169" rx="1.857" transform="translate(-49)" fill="#fae58b"/>
                </g>
                <g id="Group_4304" data-name="Group 4304" transform="translate(55.139 17.283)">
                  <rect id="Rectangle_1050" data-name="Rectangle 1050" width="105.517" height="5.169" rx="1.857" transform="translate(-49)" fill="#fae58b"/>
                </g>
                <rect id="Rectangle_1051" data-name="Rectangle 1051" width="32.326" height="5.169" rx="1.857" transform="translate(6.139 30.945)" fill="#fae58b"/>
              </g>
            </g>
          </g>
          <g id="Group_4314" data-name="Group 4314" transform="translate(24.441 371.512)">
            <rect id="Rectangle_1052" data-name="Rectangle 1052" width="183.441" height="67.376" rx="5.147" fill="url(#linear-gradient-4)"/>
            <g id="Group_4313" data-name="Group 4313" transform="translate(11.124 13.094)">
              <g id="Group_4312" data-name="Group 4312">
                <g id="Group_4308" data-name="Group 4308">
                  <rect id="Rectangle_1053" data-name="Rectangle 1053" width="41.188" height="41.188" rx="8.789" transform="translate(121)" fill="#3e3e3e"/>
                </g>
                <g id="Group_4309" data-name="Group 4309" transform="translate(55.139 3.621)">
                  <rect id="Rectangle_1054" data-name="Rectangle 1054" width="105.517" height="5.169" rx="1.857" transform="translate(-49)" fill="#fae58b"/>
                </g>
                <g id="Group_4310" data-name="Group 4310" transform="translate(55.139 17.283)">
                  <rect id="Rectangle_1055" data-name="Rectangle 1055" width="105.517" height="5.169" rx="1.857" transform="translate(-49)" fill="#fae58b"/>
                </g>
                <g id="Group_4311" data-name="Group 4311" transform="translate(55.139 30.945)">
                  <rect id="Rectangle_1056" data-name="Rectangle 1056" width="32.326" height="5.169" rx="1.857" transform="translate(-49)" fill="#fae58b"/>
                </g>
              </g>
            </g>
          </g>
        </g>
      </g>
      <g id="Group_4317" data-name="Group 4317" transform="translate(1118.576 282.641)">
        <rect id="Rectangle_1057" data-name="Rectangle 1057" width="40.693" height="35.351" rx="6.823" transform="translate(0 0)" fill="#3e3e3e"/>
        <path id="Path_6834" data-name="Path 6834" d="M917.48,345.617a.946.946,0,0,1-1.14-.17,4.479,4.479,0,0,0-3.111-1.325c-1.732-.01-3.32.572-3.33,2.293-.01,1.623,1.636,1.929,3.386,2.187,3.042.461,6.289,1.121,6.262,5.45a5.166,5.166,0,0,1-4.221,5.271.935.935,0,0,0-.76.9l0,.75a.916.916,0,0,1-.924.913l-.809,0a.918.918,0,0,1-.913-.924l0-.632a.93.93,0,0,0-.752-.908,6.127,6.127,0,0,1-4.337-3.267.921.921,0,0,1,.419-1.236l.874-.432a.938.938,0,0,1,1.186.337,4.711,4.711,0,0,0,3.759,1.874c1.875.013,3.608-.741,3.621-2.659.011-1.623-1.715-2.226-3.654-2.507-2.978-.413-5.893-1.045-5.866-5.128a4.879,4.879,0,0,1,4.143-4.878.925.925,0,0,0,.728-.891l0-.464a.919.919,0,0,1,.926-.913l.809,0a.922.922,0,0,1,.915.926l0,.483a.906.906,0,0,0,.66.888,5.052,5.052,0,0,1,3.235,2.4.917.917,0,0,1-.365,1.267Z" transform="translate(-892.536 -332.619)" fill="#ffd100"/>
      </g>
      <g id="Group_4378" data-name="Group 4378" transform="translate(821.92 259.989)">
        <g id="Group_4371" data-name="Group 4371" transform="translate(0 0)">
          <g id="Group_4362" data-name="Group 4362">
            <rect id="Rectangle_1070" data-name="Rectangle 1070" width="181.066" height="128.436" rx="7.11" fill="#ffd100" opacity="0.3"/>
            <g id="Group_4361" data-name="Group 4361" transform="translate(19.699 20.226)">
              <g id="Group_4360" data-name="Group 4360">
                <g id="Group_4358" data-name="Group 4358" transform="translate(0 12.178)">
                  <rect id="Rectangle_1071" data-name="Rectangle 1071" width="29.292" height="4.936" rx="1.773" fill="#ffd100"/>
                </g>
                <g id="Group_4359" data-name="Group 4359">
                  <rect id="Rectangle_1072" data-name="Rectangle 1072" width="53.757" height="4.936" rx="1.773" fill="#ffd100"/>
                </g>
              </g>
            </g>
          </g>
          <g id="Group_4370" data-name="Group 4370" transform="translate(21.715 73.298)">
            <g id="Group_4369" data-name="Group 4369">
              <g id="Group_4363" data-name="Group 4363">
                <rect id="Rectangle_1073" data-name="Rectangle 1073" width="17.141" height="35.811" rx="1.734" fill="#ffd100" opacity="0.3"/>
                <rect id="Rectangle_1074" data-name="Rectangle 1074" width="17.141" height="17.141" rx="1.734" transform="translate(0 18.67)" fill="#ffd100"/>
              </g>
              <g id="Group_4364" data-name="Group 4364" transform="translate(24.099)">
                <rect id="Rectangle_1075" data-name="Rectangle 1075" width="17.141" height="35.811" rx="1.734" fill="#ffd100" opacity="0.3"/>
                <rect id="Rectangle_1076" data-name="Rectangle 1076" width="17.141" height="21.862" rx="1.959" transform="translate(0 13.949)" fill="#ffd100"/>
              </g>
              <g id="Group_4365" data-name="Group 4365" transform="translate(48.199)">
                <rect id="Rectangle_1077" data-name="Rectangle 1077" width="17.141" height="35.811" rx="1.734" fill="#ffd100" opacity="0.5"/>
                <rect id="Rectangle_1078" data-name="Rectangle 1078" width="17.141" height="26.154" rx="2.142" transform="translate(0 9.657)" fill="#ffd100"/>
              </g>
              <g id="Group_4366" data-name="Group 4366" transform="translate(72.298)">
                <rect id="Rectangle_1079" data-name="Rectangle 1079" width="17.141" height="35.811" rx="1.734" fill="#ffd100" opacity="0.3"/>
                <rect id="Rectangle_1080" data-name="Rectangle 1080" width="17.141" height="20.36" rx="1.89" transform="translate(0 15.451)" fill="#ffd100"/>
              </g>
              <g id="Group_4367" data-name="Group 4367" transform="translate(96.397)">
                <rect id="Rectangle_1081" data-name="Rectangle 1081" width="17.141" height="35.811" rx="1.734" fill="#ffd100" opacity="0.3"/>
                <rect id="Rectangle_1082" data-name="Rectangle 1082" width="17.141" height="6.411" rx="1.061" transform="translate(0 29.4)" fill="#ffd100"/>
              </g>
              <g id="Group_4368" data-name="Group 4368" transform="translate(120.496)">
                <rect id="Rectangle_1083" data-name="Rectangle 1083" width="17.141" height="35.811" rx="1.734" fill="#ffd100" opacity="0.3"/>
                <rect id="Rectangle_1084" data-name="Rectangle 1084" width="17.141" height="17.141" rx="1.734" transform="translate(0 18.67)" fill="#ffd100"/>
              </g>
            </g>
          </g>
        </g>
        <g id="Group_4377" data-name="Group 4377" transform="translate(102.665 10.289)">
          <g id="Group_4376" data-name="Group 4376">
            <g id="Group_4372" data-name="Group 4372" opacity="0.27">
              <ellipse id="Ellipse_234" data-name="Ellipse 234" cx="29.038" cy="29.038" rx="29.038" ry="29.038" fill="#ffd100" opacity="0.4"/>
            </g>
            <g id="Group_4374" data-name="Group 4374" transform="translate(7.286 7.286)">
              <g id="Group_4373" data-name="Group 4373">
                <ellipse id="Ellipse_235" data-name="Ellipse 235" cx="21.752" cy="21.752" rx="21.752" ry="21.752" fill="#ffd100" stroke="#fff" stroke-miterlimit="10" stroke-width="3.623" opacity="0.4"/>
              </g>
            </g>
            <path id="Path_6925" data-name="Path 6925" d="M790.7,333.575a21.756,21.756,0,1,1-22.741,37.062" transform="translate(-750.961 -323.482)" fill="#ffd100" stroke="#fff" stroke-linecap="round" stroke-linejoin="round" stroke-width="3.623"/>
            <g id="Group_4375" data-name="Group 4375" transform="translate(29.039 7.286)">
              <path id="Path_6926" data-name="Path 6926" d="M776.607,331.559a21.938,21.938,0,0,1,3.741.32" transform="translate(-776.607 -331.559)" fill="#ffd100"/>
              <path id="Path_6927" data-name="Path 6927" d="M776.607,331.559a21.938,21.938,0,0,1,3.741.32" transform="translate(-776.607 -331.559)" fill="#ffd100" stroke="#fff" stroke-linecap="round" stroke-linejoin="round" stroke-width="3.359"/>
            </g>
          </g>
        </g>
      </g>
      <g id="Group_4336" data-name="Group 4336" transform="translate(1027.582 334.363)">
        <g id="Group_4332" data-name="Group 4332" transform="translate(0.317 134.529)">
          <g id="Group_4327" data-name="Group 4327" transform="translate(0 66.133)">
            <path id="Path_6876" data-name="Path 6876" d="M665.269,517.981l-13.906,2.532-1.636,7.335,3.829,5.836,9.651-3.845Z" transform="translate(-642.475 -514.923)" fill="url(#linear-gradient-5)"/>
            <path id="Path_6877" data-name="Path 6877" d="M656.161,516.148l8.857,1.254-.191.9a6.341,6.341,0,0,0-3.727,4.258c-.817,3.232.574,9.253,1.785,9.578a25.084,25.084,0,0,1,4.267,2.413.992.992,0,0,1,.276,1.388l-1.162,1.728a26.286,26.286,0,0,0-4.375,12.291L661,559.678s-.12.044-.317.095l-4.712-12.019a23.2,23.2,0,0,1-1.541-10.136C654.913,530.851,655.753,519.554,656.161,516.148Z" transform="translate(-651.265 -515.642)" fill="#767676"/>
            <path id="Path_6878" data-name="Path 6878" d="M661.048,515.8l3.185.494c-.408,3.406-1.247,14.7-1.733,21.469a23.2,23.2,0,0,0,1.541,10.136l4.712,12.019a4.028,4.028,0,0,1-3.952-1.1l-3.461-8.829a29.052,29.052,0,0,1-2-11.187c.21-10.623.334-18.8.379-21.874A1.159,1.159,0,0,1,661.048,515.8Z" transform="translate(-659.337 -515.784)" fill="#fafbfe"/>
          </g>
          <path id="Path_6879" data-name="Path 6879" d="M642,471.114l29.518,42.314a14.416,14.416,0,0,1-5.816,21.356c-5.561,2.548-11.191,5.042-14.208,6.143-18.163,6.628-44.407,12.678-44.407,12.678l-1.3-17.247,38.1-15.025a2.836,2.836,0,0,0,.381-5.1c-11.453-6.585-37.643-23.237-36.53-37.279C609.157,461.007,642,471.114,642,471.114Z" transform="translate(-590.139 -468.278)" fill="#767676"/>
          <g id="Group_4331" data-name="Group 4331" transform="translate(43.254 2.472)" opacity="0.5">
            <g id="Group_4330" data-name="Group 4330" transform="translate(0)">
              <g id="Group_4328" data-name="Group 4328" transform="translate(4.998)">
                <path id="Path_6880" data-name="Path 6880" d="M630.941,470.054c-.388,9.167-1.336,30.274-2.323,41.966.5.315,1.7,1.047,2.184,1.342,1.278-10.267.947-32.014,1.744-42.481l-.324-.465S631.752,470.273,630.941,470.054Z" transform="translate(-628.618 -470.054)" fill="#2f2f2f"/>
              </g>
              <g id="Group_4329" data-name="Group 4329" transform="translate(0 52.137)">
                <path id="Path_6881" data-name="Path 6881" d="M633.745,508.739c-.8,4.927-2.044,13.221-3.422,22.61l4.82-1.425c.653-6.814.748-17.4,1.733-22.418Z" transform="translate(-630.323 -507.506)" fill="#2f2f2f"/>
              </g>
            </g>
          </g>
        </g>
        <path id="Path_6882" data-name="Path 6882" d="M651.375,561.717l2.525,9.675-12.6.771-1.116-10.446Z" transform="translate(-617.504 -297.112)" fill="url(#linear-gradient-6)"/>
        <path id="Path_6883" data-name="Path 6883" d="M665.272,466.856s-1.815,46.413-3.349,53.643-12.074,81.964-12.074,81.964h-13.6c-.17-4.1-.405-9.341-.721-16.044-1.782-37.709,3.618-36.434,2.893-44.372-.344-3.761-.33-13.739-.22-23.2a73.676,73.676,0,0,0-5.692-28.36c-2.987-7.41-3.774-17.649-1.748-22.584Z" transform="translate(-614.197 -334.307)" fill="#767676"/>
        <g id="Group_4333" data-name="Group 4333" transform="translate(20.713 267.225)">
          <path id="Path_6884" data-name="Path 6884" d="M658.905,577.065H622.18a3.324,3.324,0,0,1-3.323-3.323v-.327H664.23C664.006,574.768,662.259,577.065,658.905,577.065Z" transform="translate(-618.857 -559.75)" fill="#fafbfe"/>
          <path id="Path_6885" data-name="Path 6885" d="M619.706,566.2l1.151,2.347a3.135,3.135,0,0,0,3.068,1.747l8.3-.665a3.136,3.136,0,0,0,2.6-1.82s1.974-5.264,3.7-4.023c6.273,4.508,19.013,7.556,20.236,8.194,1.08.564,4.522,1.583,5.312,3.973a3.206,3.206,0,0,1,.164,1.025,1.759,1.759,0,0,1-.028.284H618.837V566.2Z" transform="translate(-618.837 -563.599)" fill="#767676"/>
        </g>
        <g id="Group_4335" data-name="Group 4335" transform="translate(0 0)">
          <g id="Group_4334" data-name="Group 4334" transform="translate(10.334)">
            <rect id="Rectangle_1058" data-name="Rectangle 1058" width="8.593" height="1.749" transform="translate(30.098 20.235) rotate(13.22)"/>
            <path id="Path_6886" data-name="Path 6886" d="M656.283,420.738l-20-4.7L647.7,386.683l19.076,7.551Z" transform="translate(-636.287 -365.743)" fill="url(#linear-gradient-7)"/>
            <path id="Path_6887" data-name="Path 6887" d="M639.867,394.875l13.753,8.736-4.442,11.22c-.671-.515-1.565-1.219-2.772-2.2C640.363,407.724,639.867,394.875,639.867,394.875Z" transform="translate(-628.115 -362.531)" fill="url(#linear-gradient-8)"/>
            <path id="Path_6888" data-name="Path 6888" d="M639.377,414.274l-9.051-13.424,5.018-21.362,22.6,5.653-7.041,30.2a2.489,2.489,0,0,1-2.834,2.215l-5.965-1.4A4.539,4.539,0,0,1,639.377,414.274Z" transform="translate(-619.158 -368.565)" fill="url(#linear-gradient-9)"/>
            <path id="Path_6889" data-name="Path 6889" d="M623.933,400.455a2.984,2.984,0,0,1,3.017-2.99c-.81-6-.39-9.873,1.715-16.254,1.423-4.314,2.506-5.344,4.65-6.929,2.188-1.619,8.206-4.946,10.927-.159,3.1-5.673,9.838.5,12.734,2.314,1.772,1.109,2.571,2.371,4.359,3.058,2.1.809,3.042-2.194,5.314-.656,2.492,1.689,2.78,9.752.6,11.978-1.864,1.9-10.6,1.721-9.088-2.754-3.674,1.016-12.63-4.554-15.266-3.206-2.124,1.087-.375,11.563-5.747,7.9C637.833,399.468,623.883,406.264,623.933,400.455Zm7.015-5.339a1.594,1.594,0,0,0,.248-2.03C629.66,394.1,629.418,393.967,630.948,395.116Z" transform="translate(-621.028 -371.641)"/>
            <rect id="Rectangle_1059" data-name="Rectangle 1059" width="8.593" height="1.749" transform="translate(27.538 19.551) rotate(13.22)"/>
            <path id="Path_6890" data-name="Path 6890" d="M634.786,389.438l3.014,2.634c1.989,1.661,3.32,2.388,2.727,4.91l-.006.028a10.223,10.223,0,0,0,1.707,8.382h0a1.209,1.209,0,0,0,2.152-.437h0a7.4,7.4,0,0,1,8.891-5.509l2.961.7-2.634,11.3a2.5,2.5,0,0,1-2.85,2.212l-6.39-1.5a3.576,3.576,0,0,1-2.141-1.473l-7.549-11.115a6.807,6.807,0,0,1-1-5.382Z" transform="translate(-621.854 -364.663)"/>
            <path id="Path_6891" data-name="Path 6891" d="M633.849,400.085l-4.341-1.019,2.6-11.089,2.624,10.952C634.837,399.564,634.352,400.2,633.849,400.085Z" transform="translate(-594.819 -365.236)" fill="url(#linear-gradient-10)"/>
          </g>
          <path id="Path_6892" data-name="Path 6892" d="M656.656,412.162s12.9,11.341,14.886,18.146.935,16.292,1.843,19c8.4,25.058,5.3,33.4,7.852,50.536a1.79,1.79,0,0,1-2.092,2.021c-7.065-1.32-10.808-2.671-16.267-1.549-10.924,2.244-17.823,7.126-21.824,8.546-4.84,1.718-5.768-5.578-5.768-5.578a67.04,67.04,0,0,1,1.48-9.04c.66-2.219,1.563-5.122,2.6-9.5,2.41-10.207-8.365-42.529-12.476-53.87s3.544-19.7,7.8-23.532,4.679-7.655,4.679-7.655" transform="translate(-625.71 -360.645)" fill="#fff4c6"/>
          <path id="Path_6893" data-name="Path 6893" d="M627.479,435.583l.738-1.158,13.414,19.794,18.817-1.856s.455.113.56.326a44.663,44.663,0,0,1,.775,4.9c-3.081.49-15.575,2.273-20.066,2.912a2.271,2.271,0,0,1-2.351-1.233Z" transform="translate(-608.7 -347.024)" fill="#fde88f"/>
          <path id="Path_6894" data-name="Path 6894" d="M621.243,384.735,591.358,436.28l65.419,26.33,15.934-17.943Z" transform="translate(-569.343 -366.507)" opacity="0.7" fill="url(#linear-gradient-11)"/>
          <path id="Path_6895" data-name="Path 6895" d="M596.279,405.926l-1.093,30.643L639.8,454.524l10.866-12.236Z" transform="translate(-552.626 -358.198)" opacity="0.7" fill="url(#linear-gradient-12)"/>
          <path id="Path_6896" data-name="Path 6896" d="M591.642,447.158h.543a1.114,1.114,0,0,0,.827-.368L609.239,428.8a.718.718,0,0,0-.049-1.011l-.869-.792a.719.719,0,0,0-1.016.05L590.817,445.3A1.112,1.112,0,0,0,591.642,447.158Z" transform="translate(-504.899 -350.008)"/>
          <path id="Path_6897" data-name="Path 6897" d="M650.444,419.039c3.253,10.061,9.419,27.882,9.419,27.882s3.731-2.886,6.61-4.638" transform="translate(-645.359 -353.056)" fill="#fde88f"/>
          <path id="Path_6898" data-name="Path 6898" d="M609.01,423.771s10,15.239,12.972,22.044c4.324-.5,38.046,2.481,38.046,2.481a34.551,34.551,0,0,1,2.179-4.066c1.6-2.419,5.431-1.909,7.31-1.808,2.362.127,9.462,0,9.462,0s-.425,3.23-6.153,2.724v1.1s3.177.185,2.858.956-3.429,8.719-6.8,9.6-9.465-1.286-9.465-1.286c-17.681,3.269-32.128,5.368-38.126,6.2a4.69,4.69,0,0,1-4.6-2.141L598.11,430.282Z" transform="translate(-585.011 -351.201)" fill="url(#linear-gradient-13)"/>
          <path id="Path_6899" data-name="Path 6899" d="M656.94,414.143c-17.649-4.608-13.982,10.238-13.982,10.238l10.261,22.509s10.658-7.672,16.232-9.533C668.848,432.147,656.94,414.143,656.94,414.143Z" transform="translate(-637.476 -355.324)" fill="#fceba6"/>
          <path id="Path_6900" data-name="Path 6900" d="M662.944,417.6s-8.93-9.582-19.031-14.566c-3.256-1.607,1.224-5.5,1.224-5.5s15.656,9.012,16.851,12.2C663.1,412.707,662.944,417.6,662.944,417.6Z" transform="translate(-631.094 -361.491)" fill="#fff"/>
          <path id="Rectangle_1060" data-name="Rectangle 1060" d="M1.69,0H3.175a2.1,2.1,0,0,1,2.1,2.1v8.2a0,0,0,0,1,0,0H3.789A3.789,3.789,0,0,1,0,6.515V1.69A1.69,1.69,0,0,1,1.69,0Z" transform="matrix(0.973, 0.229, -0.229, 0.973, 19.171, 19.144)" fill="url(#linear-gradient-14)"/>
        </g>
      </g>
      <g id="Group_37921" data-name="Group 37921" transform="translate(547.045 196.65)">
        <path id="Path_6923" data-name="Path 6923" d="M528.124,331.527H675.28a6.746,6.746,0,0,1,6.747,6.747v75.832l-3.061-3.315a41.257,41.257,0,0,0-30.309-13.265H528.124a13.7,13.7,0,0,1-13.7-13.695V345.222A13.7,13.7,0,0,1,528.124,331.527Z" transform="translate(-514.428 -323.194)" fill="#171819" opacity="0.15"/>
        <g id="Group_37920" data-name="Group 37920" transform="translate(7.61 0)">
          <path id="Path_6924" data-name="Path 6924" d="M689.537,399.681l-1.661-1.8A45.973,45.973,0,0,0,654.1,383.1H533.4a11.462,11.462,0,0,1-11.461-11.461V335.511h167.6Z" transform="translate(-521.938 -317.102)" fill="#fff"/>
          <path id="Rectangle_1067" data-name="Rectangle 1067" d="M6.983,0H160.617A6.983,6.983,0,0,1,167.6,6.983V18.41a0,0,0,0,1,0,0H0a0,0,0,0,1,0,0V6.983A6.983,6.983,0,0,1,6.983,0Z" transform="translate(0)" fill="#3e3e3e"/>
          <g id="Group_4352" data-name="Group 4352" transform="translate(42.163 38.878)">
            <rect id="Rectangle_1068" data-name="Rectangle 1068" width="85.083" height="2.823" rx="0.86" fill="#fcdf5e"/>
          </g>
          <g id="Group_4353" data-name="Group 4353" transform="translate(42.163 49.135)">
            <rect id="Rectangle_1069" data-name="Rectangle 1069" width="45.693" height="2.823" rx="0.86" fill="#fcdf5e"/>
          </g>
          <path id="Path_51562" data-name="Path 51562" d="M11.669,0A11.669,11.669,0,1,1,0,11.669,11.669,11.669,0,0,1,11.669,0Z" transform="translate(11.728 28.62)" fill="#ffd100"/>
          <ellipse id="Ellipse_231" data-name="Ellipse 231" cx="1.546" cy="1.546" rx="1.546" ry="1.546" transform="translate(8.518 7.791)" fill="#fff"/>
          <ellipse id="Ellipse_232" data-name="Ellipse 232" cx="1.546" cy="1.546" rx="1.546" ry="1.546" transform="translate(17.436 7.791)" fill="#fff"/>
          <ellipse id="Ellipse_233" data-name="Ellipse 233" cx="1.546" cy="1.546" rx="1.546" ry="1.546" transform="translate(26.355 7.791)" fill="#fff"/>
        </g>
      </g>
      <g id="Group_4382" data-name="Group 4382" transform="translate(1119.039 448.027)">
        <rect id="Rectangle_1085" data-name="Rectangle 1085" width="149.281" height="94.071" rx="7.489" transform="translate(0 7.905)" opacity="0.2" fill="url(#linear-gradient-15)"/>
        <rect id="Rectangle_1086" data-name="Rectangle 1086" width="149.281" height="94.071" rx="7.489" transform="translate(8.188 0)" fill="#fff"/>
        <g id="Group_4379" data-name="Group 4379" transform="translate(22.522 25.019)">
          <path id="Path_6928" data-name="Path 6928" d="M780.683,309.668s-3.6-2.946-9.064,2.844c-6.042,6.4-7.108,34.3-18.276,34.417-11.49.122-13.506-28.079-24.05-25.591-8.055,1.9-15.166,24.747-26.3,28.672-22.58,7.954-27.427-8.543-34.477-8.543-7.424,0-7.474,11.624-16.943,24.892H780.119Z" transform="translate(-651.571 -308.919)" fill="#3e3e3e"/>
        </g>
        <g id="Group_4380" data-name="Group 4380" transform="translate(25.178 23.967)">
          <path id="Path_6929" data-name="Path 6929" d="M691.933,311.168H653.479v-1.5h0v-1.5h38.454v1.5h0Z" transform="translate(-653.479 -308.163)" fill="#fcdf5e"/>
        </g>
        <g id="Group_4381" data-name="Group 4381" transform="translate(25.178 16.096)">
          <path id="Path_6930" data-name="Path 6930" d="M716.431,305.514H653.479v-1.5h0v-1.5h62.952v1.5h0Z" transform="translate(-653.479 -302.509)" fill="#ffd100"/>
        </g>
      </g>
      <g id="Group_1" data-name="Group 1" transform="translate(938.301 410.046)">
        <path id="Path_1" data-name="Path 1" d="M31.438,43.37,28.2,34.3a1.346,1.346,0,0,0-1.931-.7c-.853.518-2.093,2.146-1.336,4.721.88,2.993,3.9,6.146,5.852,6.146h.056a.708.708,0,0,0,.644-.971C31.469,43.456,31.453,43.413,31.438,43.37Z" transform="translate(-2 -6.675)" fill="#fff"/>
        <path id="Path_2" data-name="Path 2" d="M49.952,25.723a3.578,3.578,0,0,0-1.493-1.855l-.892-.551a3.743,3.743,0,0,0-.239-2.216l-2.117-4.887a3.752,3.752,0,0,0-6.887,0l-1.792,4.137a5.57,5.57,0,0,0-5.111,7.439l3.085,8.638a2.914,2.914,0,0,0,5.651-.961V28.936a1.61,1.61,0,0,1,1.608-1.608,1.608,1.608,0,0,1,1.515,2.148L41.49,34.49a2.909,2.909,0,0,0,2.738,3.886h.011c.07,0,.141,0,.212-.009a2.91,2.91,0,0,0,2.515-1.922l1.79-5.013h0L49.945,28.1A3.578,3.578,0,0,0,49.952,25.723ZM45.3,23.068,44.15,25.056a1.531,1.531,0,0,1-2.652,0L40.35,23.068a1.531,1.531,0,0,1,1.326-2.3h2.3a1.53,1.53,0,0,1,1.326,2.3Z" transform="translate(-4.195)" fill="#fff"/>
      </g>
      <g id="Group_37916" data-name="Group 37916" transform="translate(938.301 483.046)">
        <path id="Path_1-2" data-name="Path 1" d="M31.438,43.37,28.2,34.3a1.346,1.346,0,0,0-1.931-.7c-.853.518-2.093,2.146-1.336,4.721.88,2.993,3.9,6.146,5.852,6.146h.056a.708.708,0,0,0,.644-.971C31.469,43.456,31.453,43.413,31.438,43.37Z" transform="translate(-2 -6.675)" fill="#fff"/>
        <path id="Path_2-2" data-name="Path 2" d="M49.952,25.723a3.578,3.578,0,0,0-1.493-1.855l-.892-.551a3.743,3.743,0,0,0-.239-2.216l-2.117-4.887a3.752,3.752,0,0,0-6.887,0l-1.792,4.137a5.57,5.57,0,0,0-5.111,7.439l3.085,8.638a2.914,2.914,0,0,0,5.651-.961V28.936a1.61,1.61,0,0,1,1.608-1.608,1.608,1.608,0,0,1,1.515,2.148L41.49,34.49a2.909,2.909,0,0,0,2.738,3.886h.011c.07,0,.141,0,.212-.009a2.91,2.91,0,0,0,2.515-1.922l1.79-5.013h0L49.945,28.1A3.578,3.578,0,0,0,49.952,25.723ZM45.3,23.068,44.15,25.056a1.531,1.531,0,0,1-2.652,0L40.35,23.068a1.531,1.531,0,0,1,1.326-2.3h2.3a1.53,1.53,0,0,1,1.326,2.3Z" transform="translate(-4.195)" fill="#fff"/>
      </g>
      <g id="Group_37917" data-name="Group 37917" transform="translate(938.301 559.046)">
        <path id="Path_1-3" data-name="Path 1" d="M31.438,43.37,28.2,34.3a1.346,1.346,0,0,0-1.931-.7c-.853.518-2.093,2.146-1.336,4.721.88,2.993,3.9,6.146,5.852,6.146h.056a.708.708,0,0,0,.644-.971C31.469,43.456,31.453,43.413,31.438,43.37Z" transform="translate(-2 -6.675)" fill="#fff"/>
        <path id="Path_2-3" data-name="Path 2" d="M49.952,25.723a3.578,3.578,0,0,0-1.493-1.855l-.892-.551a3.743,3.743,0,0,0-.239-2.216l-2.117-4.887a3.752,3.752,0,0,0-6.887,0l-1.792,4.137a5.57,5.57,0,0,0-5.111,7.439l3.085,8.638a2.914,2.914,0,0,0,5.651-.961V28.936a1.61,1.61,0,0,1,1.608-1.608,1.608,1.608,0,0,1,1.515,2.148L41.49,34.49a2.909,2.909,0,0,0,2.738,3.886h.011c.07,0,.141,0,.212-.009a2.91,2.91,0,0,0,2.515-1.922l1.79-5.013h0L49.945,28.1A3.578,3.578,0,0,0,49.952,25.723ZM45.3,23.068,44.15,25.056a1.531,1.531,0,0,1-2.652,0L40.35,23.068a1.531,1.531,0,0,1,1.326-2.3h2.3a1.53,1.53,0,0,1,1.326,2.3Z" transform="translate(-4.195)" fill="#fff"/>
      </g>
      <g id="Group_37922" data-name="Group 37922" transform="translate(140 145)">
        <g id="Group_37919" data-name="Group 37919" transform="translate(1057 234)">
          <rect id="Rectangle_1057-2" data-name="Rectangle 1057" width="40.693" height="35.351" rx="6.823" transform="translate(0 0)" fill="#3e3e3e"/>
        </g>
        <g id="Group_37918" data-name="Group 37918" transform="translate(126.313 -50.892)">
          <path id="Path_6931" data-name="Path 6931" d="M784.826,349.21l-6.706,3.135-6.706-3.135,6.706,13.412Z" transform="translate(172.981 -46.074)" fill="#ffd100"/>
          <path id="Path_6932" data-name="Path 6932" d="M778.319,352.634l6.589-3.08.825-.386-7.414-3.465-7.414,3.465.825.386Z" transform="translate(172.781 -47.449)" fill="#ffd100" opacity="0.7"/>
          <path id="Path_6933" data-name="Path 6933" d="M770.905,352.369l7.414-3.465V337.541Z" transform="translate(172.781 -50.649)" fill="#ffd100"/>
          <path id="Path_6934" data-name="Path 6934" d="M776.231,337.541V348.9l7.414,3.465Z" transform="translate(174.869 -50.649)" fill="#ffd100" opacity="0.8"/>
        </g>
      </g>
      <g id="Group_4351" data-name="Group 4351" transform="translate(691.392 242.399)">
        <g id="Group_4350" data-name="Group 4350" transform="translate(16.939 10.292)">
          <g id="Group_4349" data-name="Group 4349">
            <g id="Group_4340" data-name="Group 4340" transform="translate(0)">
              <path id="Path_6901" data-name="Path 6901" d="M835.093,351.029s6.575,8.234,6.575,11.788,1.836,8.472,1.836,8.472l14.218-5.865s.313-8.422-6.4-19.608c-2.133-3.555-8.264-11.908-8.264-11.908Z" transform="translate(-776.614 -304.764)" fill="url(#linear-gradient-16)"/>
              <g id="Group_4339" data-name="Group 4339" transform="translate(0 50.782)">
                <g id="Group_4338" data-name="Group 4338" transform="translate(3.552 97.695)">
                  <g id="Group_4337" data-name="Group 4337">
                    <path id="Path_6902" data-name="Path 6902" d="M903.2,424.79l-6.838.746-.1-.029c-11.706-3.432-20.887-5.149-27.465-5.149q-6.659,0-9.738,2.35a6.609,6.609,0,0,0-2.531,5.8c.051,2.393,1.95,5.1,6,5.4,16.034,1.174,29.364-4.395,38.181-8.078C901.583,425.46,902.414,425.112,903.2,424.79Z" transform="translate(-855.484 -419.345)" fill="#fff4c6"/>
                    <path id="Path_6903" data-name="Path 6903" d="M905.222,423.588l-10.758,1.174c-19.89-5.819-32.684-6.693-38.029-2.6a7.681,7.681,0,0,0-2.94,6.647c.063,2.851,2.269,6.075,6.966,6.419q2.268.165,4.46.161c14.286,0,26.116-4.943,34.2-8.319,2.465-1.03,4.594-1.92,6.319-2.47Zm-44.686,10.6c-4.047-.294-5.946-3.006-6-5.4a6.609,6.609,0,0,1,2.531-5.8q3.07-2.349,9.738-2.35c6.578,0,15.759,1.718,27.465,5.149l.1.029,6.838-.746c-.788.322-1.619.67-2.493,1.034C889.9,429.794,876.569,435.362,860.535,434.188Z" transform="translate(-853.491 -419.631)" fill="#fae58b"/>
                  </g>
                  <rect id="Rectangle_1061" data-name="Rectangle 1061" width="0.8" height="9.641" transform="translate(11.875 3.15)" fill="#fae58b"/>
                  <rect id="Rectangle_1062" data-name="Rectangle 1062" width="0.8" height="8.708" transform="translate(8.854 3.617)" fill="#fae58b"/>
                  <rect id="Rectangle_1063" data-name="Rectangle 1063" width="0.8" height="6.886" transform="translate(6.388 4.727)" fill="#fae58b"/>
                </g>
                <path id="Path_6904" data-name="Path 6904" d="M884.826,406.446s-44.251-.888-47.9,0-14.573,14.525-.444,19.282c16.729,5.634,45.229,9.622,45.852,9.965,2.891.443,13.307,0,15.639,0,20.652-.026,20.436-15.741,20.436-15.741Z" transform="translate(-829.457 -327.26)" fill="#767676"/>
                <path id="Path_6905" data-name="Path 6905" d="M882.445,427.37c10.86-1.419,15.487-8.126,17.461-13.659l8.055,3.238s.216,15.714-20.436,15.741c-2.332,0-12.747.443-15.64,0-.58-.32-25.512-3.826-42.427-8.882,15.643,3.91,37.972,5.122,38.5,5.432C870.638,429.426,880.285,427.654,882.445,427.37Z" transform="translate(-819.004 -324.256)" fill="#5f5f5f" opacity="0.52"/>
                <path id="Path_6906" data-name="Path 6906" d="M827.9,429.232c2.808.473,22.9,12.083,24.441,13.625s14.811,3.791,13.862-.711.83-59.593.83-59.593l-5.806-32.226s-15.4-3.554-19.311,3.672-5.332,11.374-10.544,17.179-4.5,15.639,1.776,22.274-5.248,35.781-5.248,35.781" transform="translate(-775.917 -349.452)" fill="#fff4c6"/>
                <rect id="Rectangle_1064" data-name="Rectangle 1064" width="46.102" height="3.11" transform="translate(0.899 77.143)"/>
                <path id="Path_6907" data-name="Path 6907" d="M888.366,376.894h15.462v28.523a6.333,6.333,0,0,1-2.484,5.161,6.031,6.031,0,0,1-.537.349c-1.867,1.066-24.259,5.243-44.518,4.888s-19.46.021-19.46.021-3.522-7.537-1.245-8.063c1.156-.267,6.271-.831,20.616.667,14.039,1.466,13.6-2.4,32.522-9.952Z" transform="translate(-822.335 -338.692)" fill="url(#linear-gradient-17)"/>
                <path id="Path_6908" data-name="Path 6908" d="M849.284,368c-13.005-10.207-15.32,3.458-15.32,3.458l.4,22.417s11.631-2.528,16.936-2.06C852.678,387.264,849.284,368,849.284,368Z" transform="translate(-768.945 -343.665)" fill="#fceba6"/>
              </g>
              <path id="Path_6909" data-name="Path 6909" d="M815.734,343.733c-4.843-1.155-9.525-4.733-10.311-7.285s-2.942-23.9,20.13-23.468c17.444.327,15.416,12.568,24.351,19.54s11.1.589,18.166,5.5,5.007,12.372,8.052,16.5,13.879,4.02,15.906,19.736c1.857,14.4-9.748,11.019-12.3,15.437s-1.669,13.746-11,13.452-9.732-.192-12.327-3.287c-6.352-7.572-.8-7.721-6.858-22.132-1.245-2.962-10.366-8.226-12.114-12.025-2.184-4.744-1.047-17.592-3.88-19.964C828.738,341.706,820.653,344.906,815.734,343.733Z" transform="translate(-769.206 -312.973)"/>
              <path id="Path_6910" data-name="Path 6910" d="M843.915,332c.128-11.727,9.53-4.839,9.922-4.249,7.523,11.38,10.754,9.727,11.947,9.393,2.226-.621,2.929-3.941,3.349-5.574.89-3.459,4.148-2.744,5.321-1.38,2.614,3.043-.49,3.928-2.188,8.223-.387.98-.635,3.718-.963,5-3.235,12.668-12.26,14.33-14.944,13.611s-5.662-8.069-6.447-8.788-3.732-.327-3.732-.327.214-5.389.161-7.516C846.273,337.758,844.373,337.462,843.915,332Z" transform="translate(-806.632 -308.175)" fill="url(#linear-gradient-18)"/>
              <path id="Path_6911" data-name="Path 6911" d="M855.8,326.7h0a5.708,5.708,0,0,1,1.831,7.229l-.244.489a5.71,5.71,0,0,1-8.7,1.881l-.019-.017a5.709,5.709,0,0,1-1.388-7.217l.264-.472A5.709,5.709,0,0,1,855.8,326.7Z" transform="translate(-793.065 -307.995)"/>
              <path id="Path_6912" data-name="Path 6912" d="M851.264,325.66h0a5.71,5.71,0,0,1,1.831,7.231l-.244.489a5.709,5.709,0,0,1-8.7,1.879l-.02-.015a5.709,5.709,0,0,1-1.388-7.217l.265-.473A5.709,5.709,0,0,1,851.264,325.66Z" transform="translate(-782.224 -308.404)"/>
              <path id="Rectangle_1065" data-name="Rectangle 1065" d="M4.6,0H6.4a0,0,0,0,1,0,0V9.956A2.547,2.547,0,0,1,3.853,12.5H2.05A2.05,2.05,0,0,1,0,10.453V4.6A4.6,4.6,0,0,1,4.6,0Z" transform="translate(68.219 35.13) rotate(-176.42)" fill="url(#linear-gradient-19)"/>
            </g>
            <g id="Group_4348" data-name="Group 4348" transform="translate(14.145 140.582)">
              <g id="Group_4346" data-name="Group 4346">
                <g id="Group_4345" data-name="Group 4345">
                  <g id="Group_4342" data-name="Group 4342" transform="translate(5.569 7.925)">
                    <g id="Group_4341" data-name="Group 4341">
                      <path id="Path_6913" data-name="Path 6913" d="M845.035,419.651a45.217,45.217,0,0,0,34.321,15.734h42.38q.376,6.064.384,12.221a194.73,194.73,0,0,1-76.2,154.658,194.733,194.733,0,0,1-76.2-154.658q0-6.158.384-12.221h40.6A45.214,45.214,0,0,0,845.035,419.651Z" transform="translate(-769.728 -419.651)" fill="url(#linear-gradient-20)"/>
                      <path id="Path_6914" data-name="Path 6914" d="M824.8,448.059q0-6.158.384-12.221h40.6a45.219,45.219,0,0,0,34.32-15.734c.136.157.283.3.42.461V602.345A194.719,194.719,0,0,1,824.8,448.059Z" transform="translate(-824.799 -419.473)" fill="#fae58b"/>
                      <path id="Path_6915" data-name="Path 6915" d="M774.606,491.428l88.76-62.312a45.161,45.161,0,0,0,15.014,2.557h35.973L785.189,522.348A193.561,193.561,0,0,1,774.606,491.428Z" transform="translate(-768.752 -415.94)" fill="url(#linear-gradient-21)"/>
                      <path id="Path_6916" data-name="Path 6916" d="M903.945,443.017a194.4,194.4,0,0,1-14.687,74.328l-84.613,59.4a195.414,195.414,0,0,1-34.917-51.419l133.859-93.971C903.815,435.214,903.945,439.1,903.945,443.017Z" transform="translate(-751.553 -415.062)" fill="url(#linear-gradient-22)"/>
                    </g>
                  </g>
                  <g id="Group_4343" data-name="Group 4343" transform="translate(9.088 6.554)" opacity="0.2">
                    <path id="Path_6917" data-name="Path 6917" d="M840.277,615.7a1.13,1.13,0,0,0,1.374,0l2.709-2.087a199.366,199.366,0,0,0,78.368-159.07c0-4.112-.132-8.341-.394-12.565l-.258-4.168a1.127,1.127,0,0,0-1.123-1.057H874.4a39.749,39.749,0,0,1-30.106-13.8l-3.363-3.9a1.125,1.125,0,0,0-1.7,0l-3.363,3.9a39.747,39.747,0,0,1-30.106,13.8h-44.78a1.126,1.126,0,0,0-1.123,1.057l-.258,4.169c-.262,4.235-.394,8.461-.394,12.564a199.365,199.365,0,0,0,78.368,159.07Zm70.1-167.81a1.136,1.136,0,0,1,1.132,1.1c.056,1.867.083,3.722.083,5.553a188.206,188.206,0,0,1-69.906,146.986,1.15,1.15,0,0,1-1.444,0,188.206,188.206,0,0,1-69.906-146.986c0-1.828.028-3.682.083-5.553a1.136,1.136,0,0,1,1.132-1.1h34.2a50.855,50.855,0,0,0,33.586-12.667,1.107,1.107,0,0,1,1.471,0A50.849,50.849,0,0,0,874.4,447.893Z" transform="translate(-759.2 -418.667)" fill="#fff4c6"/>
                  </g>
                  <g id="Group_4344" data-name="Group 4344" transform="translate(0)">
                    <path id="Path_6918" data-name="Path 6918" d="M846.805,610.995a1.126,1.126,0,0,0,1.374,0l2.71-2.085a199.371,199.371,0,0,0,78.367-159.071c0-4.112-.132-8.34-.394-12.564l-.258-4.169a1.126,1.126,0,0,0-1.123-1.055H880.924a39.75,39.75,0,0,1-30.106-13.8l-3.363-3.9a1.125,1.125,0,0,0-1.7,0l-3.362,3.9a39.752,39.752,0,0,1-30.106,13.8H767.5a1.125,1.125,0,0,0-1.123,1.057l-.258,4.169c-.262,4.235-.394,8.461-.394,12.562A199.368,199.368,0,0,0,844.1,608.909Zm70.1-167.808a1.135,1.135,0,0,1,1.132,1.1c.056,1.868.083,3.722.083,5.553a188.206,188.206,0,0,1-69.906,146.986,1.15,1.15,0,0,1-1.444,0,188.207,188.207,0,0,1-69.906-146.986c0-1.826.028-3.682.083-5.552a1.137,1.137,0,0,1,1.132-1.1h34.2a50.848,50.848,0,0,0,33.584-12.668,1.107,1.107,0,0,1,1.471,0,50.846,50.846,0,0,0,33.585,12.668Z" transform="translate(-765.728 -413.959)" fill="#fff"/>
                  </g>
                </g>
              </g>
              <g id="Group_4347" data-name="Group 4347" transform="translate(44.237 59.494)">
                <path id="Path_6919" data-name="Path 6919" d="M829.675,508.577l-26.971-29.5a1.2,1.2,0,0,1,.077-1.7l8.9-8.138a1.2,1.2,0,0,1,1.7.077l16.526,18.075a1.2,1.2,0,0,0,1.769.007l28.165-30.317a1.2,1.2,0,0,1,1.712-.05l8.717,8.332a1.2,1.2,0,0,1,.046,1.691l-38.877,41.534A1.2,1.2,0,0,1,829.675,508.577Z" transform="translate(-802.39 -456.695)" fill="#fff"/>
              </g>
            </g>
          </g>
          <path id="Path_6920" data-name="Path 6920" d="M824.8,404.867" transform="translate(-729.358 -276.942)" fill="#bb81d1"/>
        </g>
        <path id="Path_6921" data-name="Path 6921" d="M907.706,305.58l30.7,94.852-99.73,42.645-18.6-33.417Z" transform="translate(-819.448 -305.58)" opacity="0.69" fill="url(#linear-gradient-23)"/>
        <path id="Path_6922" data-name="Path 6922" d="M924.9,344.117l-5.6,55.189-68.012,29.082L838.606,405.6Z" transform="translate(-831.742 -290.47)" opacity="0.26" fill="url(#linear-gradient-24)"/>
        <rect id="Rectangle_1066" data-name="Rectangle 1066" width="41.733" height="1.714" transform="translate(19.91 140.852) rotate(-118.495)"/>
      </g>
    </g>
    <g id="Group_39314" data-name="Group 39314" transform="translate(550.045 242.129)">
      <path id="Path_1-4" data-name="Path 1" d="M28.611,39.192l-1.879-5.265a.781.781,0,0,0-1.121-.4,2.339,2.339,0,0,0-.775,2.74c.511,1.737,2.262,3.568,3.4,3.568h.032a.411.411,0,0,0,.374-.564C28.629,39.242,28.619,39.217,28.611,39.192Z" transform="translate(-24.699 -25.992)" fill="#222"/>
      <path id="Path_2-4" data-name="Path 2" d="M42.042,20.785a2.077,2.077,0,0,0-.866-1.076l-.518-.32a2.173,2.173,0,0,0-.139-1.286L39.29,15.267a2.178,2.178,0,0,0-4,0l-1.04,2.4a3.233,3.233,0,0,0-2.967,4.318L33.076,27a1.691,1.691,0,0,0,3.28-.558V22.65a.934.934,0,0,1,.933-.933.934.934,0,0,1,.879,1.247L37.13,25.874a1.689,1.689,0,0,0,1.589,2.256h.006c.041,0,.082,0,.123,0a1.689,1.689,0,0,0,1.46-1.115l1.039-2.91h0l.69-1.932A2.077,2.077,0,0,0,42.042,20.785Zm-2.7-1.541L38.674,20.4a.889.889,0,0,1-1.539,0l-.666-1.154a.889.889,0,0,1,.77-1.333H38.57a.888.888,0,0,1,.77,1.333Z" transform="translate(-28.64 -13.954)" fill="#222"/>
    </g>
  </g>
</svg>
