<svg xmlns="http://www.w3.org/2000/svg" xmlns:xlink="http://www.w3.org/1999/xlink" width="103" height="103" viewBox="0 0 103 103">
  <defs>
    <filter id="Ellipse_554" x="0" y="0" width="103" height="103" filterUnits="userSpaceOnUse">
      <feOffset dx="3" dy="3" input="SourceAlpha"/>
      <feGaussianBlur stdDeviation="1.5" result="blur"/>
      <feFlood flood-color="#ebebeb"/>
      <feComposite operator="in" in2="blur"/>
      <feComposite in="SourceGraphic"/>
    </filter>
  </defs>
  <g id="Group_41536" data-name="Group 41536" transform="translate(-794.5 -2953.5)">
    <g transform="matrix(1, 0, 0, 1, 794.5, 2953.5)" filter="url(#Ellipse_554)">
      <circle id="Ellipse_554-2" data-name="Ellipse 554" cx="47" cy="47" r="47" transform="translate(1.5 1.5)" fill="#fff"/>
    </g>
    <path id="worldwide" d="M31.823,5.449a18.6,18.6,0,0,0-26.3,26.308,18.6,18.6,0,0,0,26.3-26.308ZM18.673,35.026c-1.224,0-2.573-1.653-3.608-4.421a25.1,25.1,0,0,1-.978-3.378,4.075,4.075,0,0,0,2.213-2.6h7.423A28.69,28.69,0,0,1,22.28,30.6C21.245,33.373,19.9,35.026,18.673,35.026ZM8.483,22.452H2.707a16.592,16.592,0,0,1,.326-8.869H11.3a46.683,46.683,0,0,0-.266,5.02c0,.372.006.741.014,1.109a4.074,4.074,0,0,0-2.568,2.74Zm3.908-.788a1.878,1.878,0,1,1-1.878,1.878A1.88,1.88,0,0,1,12.391,21.664Zm3.908.788a4.071,4.071,0,0,0-3.071-2.881c-.007-.321-.011-.644-.011-.968a44.459,44.459,0,0,1,.278-5.02h7.391a4.069,4.069,0,0,0,3.194,2.9q.048,1.044.049,2.116c0,1.313-.055,2.6-.161,3.849ZM18.673,2.18c1.224,0,2.573,1.653,3.608,4.421a23.4,23.4,0,0,1,.709,2.259,4.075,4.075,0,0,0-2.1,2.543H13.807a27.111,27.111,0,0,1,1.258-4.8C16.1,3.833,17.448,2.18,18.673,2.18Zm6.121,12.191a1.878,1.878,0,1,1,1.878-1.878A1.88,1.88,0,0,1,24.794,14.371Zm1.459,1.908a4.075,4.075,0,0,0,2.45-2.7h5.61a16.592,16.592,0,0,1,.326,8.869H26.154c.1-1.252.155-2.54.155-3.849q0-1.175-.056-2.324ZM33.436,11.4H28.7A4.066,4.066,0,0,0,25.133,8.45a25.621,25.621,0,0,0-.811-2.612,15.1,15.1,0,0,0-1.569-3.148A16.5,16.5,0,0,1,33.436,11.4ZM7.064,6.99a16.315,16.315,0,0,1,7.528-4.3,15.1,15.1,0,0,0-1.569,3.148A29.8,29.8,0,0,0,11.6,11.4H3.909A16.446,16.446,0,0,1,7.064,6.99ZM3.393,24.632h5.09a4.067,4.067,0,0,0,3.45,2.941,27.378,27.378,0,0,0,1.09,3.795,15.1,15.1,0,0,0,1.569,3.148,16.485,16.485,0,0,1-11.2-9.885Zm26.888,5.584a16.315,16.315,0,0,1-7.528,4.3,15.1,15.1,0,0,0,1.569-3.148,31.285,31.285,0,0,0,1.6-6.736h8.031A16.386,16.386,0,0,1,30.281,30.216Z" transform="translate(823.925 2983)" fill="#ffd007"/>
  </g>
</svg>
