<svg id="Logo" xmlns="http://www.w3.org/2000/svg" width="275.812" height="53.849" viewBox="0 0 275.812 53.849">
  <g id="Group_1" data-name="Group 1">
    <path id="Path_1" data-name="Path 1" d="M39.558,55.369l-7.137-20a2.968,2.968,0,0,0-4.259-1.537c-1.88,1.141-4.615,4.732-2.945,10.409,1.941,6.6,8.591,13.552,12.9,13.552h.123a1.561,1.561,0,0,0,1.42-2.141C39.627,55.559,39.591,55.465,39.558,55.369Z" transform="translate(-24.699 -5.227)" fill="#ffd100"/>
    <path id="Path_2" data-name="Path 2" d="M72.669,39.9a7.889,7.889,0,0,0-3.291-4.089L67.411,34.6a8.254,8.254,0,0,0-.527-4.886L62.217,18.94a8.274,8.274,0,0,0-15.185,0L43.08,28.063a12.281,12.281,0,0,0-11.269,16.4l6.8,19.045c2.349,6.728,12.469,5,12.46-2.119v-14.4a3.55,3.55,0,0,1,3.546-3.546,3.546,3.546,0,0,1,3.34,4.737L54.011,59.235A6.414,6.414,0,0,0,60.048,67.8h.025c.155,0,.311-.007.466-.019a6.415,6.415,0,0,0,5.546-4.237l3.947-11.054h0l2.622-7.34A7.888,7.888,0,0,0,72.669,39.9ZM62.406,34.049l-2.529,4.383a3.377,3.377,0,0,1-5.848,0L51.5,34.049a3.376,3.376,0,0,1,2.923-5.064h5.061a3.375,3.375,0,0,1,2.923,5.064Z" transform="translate(-21.829 -13.954)" fill="#ffd100"/>
  </g>
  <g id="Group_2" data-name="Group 2" transform="translate(63.092 10.577)">
    <path id="Path_3" data-name="Path 3" d="M85.563,38.06v6.491h7.645c-.817,3.078-3.365,4.809-7.164,4.809-5.048,0-8.653-3.847-8.653-9.04S81,31.329,86.044,31.329a8.5,8.5,0,0,1,6.972,3.414l6.4-6.443s-3.943-5.384-13.222-5.384c-10.145,0-17.934,7.741-17.934,17.453s7.5,17.163,17.646,17.163c10.241,0,16.732-7.548,16.732-16.972a19.829,19.829,0,0,0-.193-2.5Z" transform="translate(-68.255 -20.511)"/>
    <path id="Path_51105" data-name="Path 51105" d="M85.563,38.06v6.491h7.645c-.817,3.078-3.365,4.809-7.164,4.809-5.048,0-8.653-3.847-8.653-9.04S81,31.329,86.044,31.329a8.5,8.5,0,0,1,6.972,3.414l6.4-6.443s-3.943-5.384-13.222-5.384c-10.145,0-17.934,7.741-17.934,17.453s7.5,17.163,17.646,17.163c10.241,0,16.732-7.548,16.732-16.972a19.829,19.829,0,0,0-.193-2.5Z" transform="translate(80.942 -20.511)" fill="#ffd100"/>
    <path id="Path_4" data-name="Path 4" d="M107.037,28.89c-7.886,0-13.848,5.819-13.848,13.126s5.674,12.837,13.558,12.837,13.848-5.817,13.848-13.125S114.921,28.89,107.037,28.89Zm-.145,18.031a5.049,5.049,0,1,1,5.048-5.05A4.958,4.958,0,0,1,106.892,46.921Z" transform="translate(-57.072 -17.832)"/>
    <path id="Path_51104" data-name="Path 51104" d="M107.037,28.89c-7.886,0-13.848,5.819-13.848,13.126s5.674,12.837,13.558,12.837,13.848-5.817,13.848-13.125S114.921,28.89,107.037,28.89Zm-.145,18.031a5.049,5.049,0,1,1,5.048-5.05A4.958,4.958,0,0,1,106.892,46.921Z" transform="translate(92.126 -17.832)" fill="#ffd100"/>
    <path id="Path_5" data-name="Path 5" d="M121.728,33.842l-.433-4.472H113.6v25h8.655V44.421c.1-4.76,2.307-6.636,6.346-6.636h1.828l.145-8.9C126.488,28.89,123.411,30.67,121.728,33.842Z" transform="translate(-47.916 -17.832)"/>
    <rect id="Rectangle_2" data-name="Rectangle 2" width="8.75" height="25.002" transform="translate(84.822 11.539)"/>
    <path id="Path_6" data-name="Path 6" d="M131.472,21.256c-3.078,0-5.29,2.019-5.29,4.808s2.212,4.809,5.29,4.809,5.289-2.019,5.289-4.809S134.549,21.256,131.472,21.256Z" transform="translate(-42.274 -21.256)"/>
    <rect id="Rectangle_3" data-name="Rectangle 3" width="8.75" height="33.656" transform="translate(97.9 2.885)"/>
    <rect id="Rectangle_4" data-name="Rectangle 4" width="8.75" height="33.656" transform="translate(110.977 2.885)"/>
    <path id="Path_7" data-name="Path 7" d="M164.808,28.89a17.907,17.907,0,0,0-10.961,3.366l3.365,5.529a10.944,10.944,0,0,1,5.769-1.683c2.788,0,4.808,1.588,4.808,4.088v.529a12,12,0,0,0-5.625-1.25c-5.914,0-9.76,3.365-9.76,7.836s3.558,7.548,9.472,7.548a10.934,10.934,0,0,0,7.212-2.355l.624,1.874h6.731V40.285C176.444,33.17,171.924,28.89,164.808,28.89Zm-.288,20.675c-2.067,0-3.462-1.154-3.462-2.644s1.395-2.645,3.462-2.645,3.51,1.154,3.51,2.645S166.588,49.565,164.519,49.565Z" transform="translate(-30.513 -17.832)"/>
  </g>
</svg>
