<svg xmlns="http://www.w3.org/2000/svg" xmlns:xlink="http://www.w3.org/1999/xlink" width="103" height="103" viewBox="0 0 103 103">
  <defs>
    <filter id="Ellipse_553" x="0" y="0" width="103" height="103" filterUnits="userSpaceOnUse">
      <feOffset dx="3" dy="3" input="SourceAlpha"/>
      <feGaussianBlur stdDeviation="1.5" result="blur"/>
      <feFlood flood-color="#dbdbdb"/>
      <feComposite operator="in" in2="blur"/>
      <feComposite in="SourceGraphic"/>
    </filter>
  </defs>
  <g id="Group_41538" data-name="Group 41538" transform="translate(-794.5 -2698.5)">
    <g transform="matrix(1, 0, 0, 1, 794.5, 2698.5)" filter="url(#Ellipse_553)">
      <circle id="Ellipse_553-2" data-name="Ellipse 553" cx="47" cy="47" r="47" transform="translate(1.5 1.5)" fill="#fff"/>
    </g>
    <g id="Group_41533" data-name="Group 41533" transform="translate(439.74 2412.288)">
      <path id="Path_52878" data-name="Path 52878" d="M411.652,349.712a21.326,21.326,0,0,1-2.592-.392,31.355,31.355,0,0,1-15.337-9.006c-2.046-2.27-3.913-4.711-5.739-7.165a13.944,13.944,0,0,1-2.632-6.635,9.812,9.812,0,0,1,2.487-7.991c1.423-1.654,3.237-1.687,5.119-1.283a1.972,1.972,0,0,1,1.105,1.064c1.009,2.247,1.934,4.532,2.89,6.8a2.268,2.268,0,0,1-.369,2.218,14.828,14.828,0,0,1-1.681,2.111,1.512,1.512,0,0,0-.254,2.09,23.467,23.467,0,0,0,11.569,9.9,1.461,1.461,0,0,0,1.9-.48c.751-.937,1.551-1.835,2.312-2.765.961-1.174,1.2-1.286,2.593-.647,2.075.95,4.108,1.994,6.175,2.961a1.793,1.793,0,0,1,1.105,1.852,7.264,7.264,0,0,1-6.061,7.044C413.366,349.579,412.458,349.616,411.652,349.712Z" fill="#ffd007" stroke="#ffd100" stroke-miterlimit="10" stroke-width="3"/>
    </g>
  </g>
</svg>
